<mxfile host="app.diagrams.net" agent="Mozilla/5.0 (Windows NT 10.0; Win64; x64) AppleWebKit/537.36 (KHTML, like Gecko) Chrome/131.0.0.0 Safari/537.36" version="25.0.3">
  <diagram id="C5RBs43oDa-KdzZeNtuy" name="Page-1">
    <mxGraphModel dx="1877" dy="557" grid="1" gridSize="10" guides="1" tooltips="1" connect="1" arrows="1" fold="1" page="1" pageScale="1" pageWidth="827" pageHeight="1169" math="0" shadow="0">
      <root>
        <mxCell id="WIyWlLk6GJQsqaUBKTNV-0" />
        <mxCell id="WIyWlLk6GJQsqaUBKTNV-1" parent="WIyWlLk6GJQsqaUBKTNV-0" />
        <mxCell id="Yh69G0Fh408ok0piyPVB-2" value="" style="edgeStyle=orthogonalEdgeStyle;rounded=0;orthogonalLoop=1;jettySize=auto;html=1;" edge="1" parent="WIyWlLk6GJQsqaUBKTNV-1" source="Yh69G0Fh408ok0piyPVB-0" target="Yh69G0Fh408ok0piyPVB-1">
          <mxGeometry relative="1" as="geometry" />
        </mxCell>
        <mxCell id="Yh69G0Fh408ok0piyPVB-0" value="Inicio" style="ellipse;whiteSpace=wrap;html=1;aspect=fixed;" vertex="1" parent="WIyWlLk6GJQsqaUBKTNV-1">
          <mxGeometry x="50" y="30" width="80" height="80" as="geometry" />
        </mxCell>
        <mxCell id="Yh69G0Fh408ok0piyPVB-4" value="" style="edgeStyle=orthogonalEdgeStyle;rounded=0;orthogonalLoop=1;jettySize=auto;html=1;" edge="1" parent="WIyWlLk6GJQsqaUBKTNV-1" source="Yh69G0Fh408ok0piyPVB-1" target="Yh69G0Fh408ok0piyPVB-3">
          <mxGeometry relative="1" as="geometry" />
        </mxCell>
        <mxCell id="Yh69G0Fh408ok0piyPVB-1" value="&lt;div&gt;&amp;nbsp;Definir tipo_cambio_eur_a_mex = 23.70&lt;/div&gt;&lt;div&gt;&amp;nbsp; &amp;nbsp; &amp;nbsp; &amp;nbsp; Definir tipo_cambio_usd_a_mex = 20.75&lt;/div&gt;" style="rounded=1;whiteSpace=wrap;html=1;" vertex="1" parent="WIyWlLk6GJQsqaUBKTNV-1">
          <mxGeometry x="10" y="190" width="200" height="100" as="geometry" />
        </mxCell>
        <mxCell id="Yh69G0Fh408ok0piyPVB-6" value="" style="edgeStyle=orthogonalEdgeStyle;rounded=0;orthogonalLoop=1;jettySize=auto;html=1;" edge="1" parent="WIyWlLk6GJQsqaUBKTNV-1" source="Yh69G0Fh408ok0piyPVB-3" target="Yh69G0Fh408ok0piyPVB-5">
          <mxGeometry relative="1" as="geometry" />
        </mxCell>
        <mxCell id="Yh69G0Fh408ok0piyPVB-3" value="Mostrar mensaje: &quot;Por favor ingrese la moneda origen para la conversion (EUR/USD)&quot;" style="shape=parallelogram;perimeter=parallelogramPerimeter;whiteSpace=wrap;html=1;fixedSize=1;rounded=1;" vertex="1" parent="WIyWlLk6GJQsqaUBKTNV-1">
          <mxGeometry x="-10" y="380" width="240" height="80" as="geometry" />
        </mxCell>
        <mxCell id="Yh69G0Fh408ok0piyPVB-8" value="" style="edgeStyle=orthogonalEdgeStyle;rounded=0;orthogonalLoop=1;jettySize=auto;html=1;" edge="1" parent="WIyWlLk6GJQsqaUBKTNV-1" source="Yh69G0Fh408ok0piyPVB-5" target="Yh69G0Fh408ok0piyPVB-7">
          <mxGeometry relative="1" as="geometry" />
        </mxCell>
        <mxCell id="Yh69G0Fh408ok0piyPVB-5" value="Mostrar mensaje: &quot;Por favor ingrese la cantidad a convertir: &quot;" style="shape=parallelogram;perimeter=parallelogramPerimeter;whiteSpace=wrap;html=1;fixedSize=1;rounded=1;" vertex="1" parent="WIyWlLk6GJQsqaUBKTNV-1">
          <mxGeometry x="-10" y="540" width="240" height="80" as="geometry" />
        </mxCell>
        <mxCell id="Yh69G0Fh408ok0piyPVB-10" value="" style="edgeStyle=orthogonalEdgeStyle;rounded=0;orthogonalLoop=1;jettySize=auto;html=1;exitX=1;exitY=0.5;exitDx=0;exitDy=0;" edge="1" parent="WIyWlLk6GJQsqaUBKTNV-1" source="Yh69G0Fh408ok0piyPVB-7" target="Yh69G0Fh408ok0piyPVB-9">
          <mxGeometry relative="1" as="geometry">
            <mxPoint x="290" y="740" as="sourcePoint" />
          </mxGeometry>
        </mxCell>
        <mxCell id="Yh69G0Fh408ok0piyPVB-14" value="" style="edgeStyle=orthogonalEdgeStyle;rounded=0;orthogonalLoop=1;jettySize=auto;html=1;" edge="1" parent="WIyWlLk6GJQsqaUBKTNV-1" source="Yh69G0Fh408ok0piyPVB-7" target="Yh69G0Fh408ok0piyPVB-13">
          <mxGeometry relative="1" as="geometry" />
        </mxCell>
        <mxCell id="Yh69G0Fh408ok0piyPVB-7" value="tipo_conversion == &quot;EUR&quot;" style="rhombus;whiteSpace=wrap;html=1;rounded=1;" vertex="1" parent="WIyWlLk6GJQsqaUBKTNV-1">
          <mxGeometry x="10" y="660" width="200" height="160" as="geometry" />
        </mxCell>
        <mxCell id="Yh69G0Fh408ok0piyPVB-12" value="" style="edgeStyle=orthogonalEdgeStyle;rounded=0;orthogonalLoop=1;jettySize=auto;html=1;" edge="1" parent="WIyWlLk6GJQsqaUBKTNV-1" source="Yh69G0Fh408ok0piyPVB-9" target="Yh69G0Fh408ok0piyPVB-11">
          <mxGeometry relative="1" as="geometry" />
        </mxCell>
        <mxCell id="Yh69G0Fh408ok0piyPVB-9" value="Calcular resultado = monto_a_convertir * tipo_cambio_eur_a_mex" style="whiteSpace=wrap;html=1;rounded=1;" vertex="1" parent="WIyWlLk6GJQsqaUBKTNV-1">
          <mxGeometry x="340" y="710" width="180" height="60" as="geometry" />
        </mxCell>
        <mxCell id="Yh69G0Fh408ok0piyPVB-11" value="Mostrar mensaje &quot;El resultado de la conversion de EUR a Mex es: &quot;" style="shape=parallelogram;perimeter=parallelogramPerimeter;whiteSpace=wrap;html=1;fixedSize=1;rounded=1;" vertex="1" parent="WIyWlLk6GJQsqaUBKTNV-1">
          <mxGeometry x="570" y="700" width="240" height="80" as="geometry" />
        </mxCell>
        <mxCell id="Yh69G0Fh408ok0piyPVB-16" value="" style="edgeStyle=orthogonalEdgeStyle;rounded=0;orthogonalLoop=1;jettySize=auto;html=1;" edge="1" parent="WIyWlLk6GJQsqaUBKTNV-1" source="Yh69G0Fh408ok0piyPVB-13" target="Yh69G0Fh408ok0piyPVB-15">
          <mxGeometry relative="1" as="geometry" />
        </mxCell>
        <mxCell id="Yh69G0Fh408ok0piyPVB-13" value="tipo_conversion == &quot;USD&quot;" style="rhombus;whiteSpace=wrap;html=1;rounded=1;" vertex="1" parent="WIyWlLk6GJQsqaUBKTNV-1">
          <mxGeometry y="900" width="220" height="130" as="geometry" />
        </mxCell>
        <mxCell id="Yh69G0Fh408ok0piyPVB-18" value="" style="edgeStyle=orthogonalEdgeStyle;rounded=0;orthogonalLoop=1;jettySize=auto;html=1;" edge="1" parent="WIyWlLk6GJQsqaUBKTNV-1" source="Yh69G0Fh408ok0piyPVB-15" target="Yh69G0Fh408ok0piyPVB-17">
          <mxGeometry relative="1" as="geometry" />
        </mxCell>
        <mxCell id="Yh69G0Fh408ok0piyPVB-15" value="Calcular resultado = monto_a_convertir * tipo_cambio_usd_a_mex" style="whiteSpace=wrap;html=1;rounded=1;" vertex="1" parent="WIyWlLk6GJQsqaUBKTNV-1">
          <mxGeometry x="330" y="925" width="180" height="80" as="geometry" />
        </mxCell>
        <mxCell id="Yh69G0Fh408ok0piyPVB-17" value="Mostrar mensaje &quot;El resultado de la conversion de USD a Mex es: &quot;" style="shape=parallelogram;perimeter=parallelogramPerimeter;whiteSpace=wrap;html=1;fixedSize=1;rounded=1;" vertex="1" parent="WIyWlLk6GJQsqaUBKTNV-1">
          <mxGeometry x="560" y="915" width="240" height="100" as="geometry" />
        </mxCell>
        <mxCell id="Yh69G0Fh408ok0piyPVB-33" value="" style="edgeStyle=orthogonalEdgeStyle;rounded=0;orthogonalLoop=1;jettySize=auto;html=1;" edge="1" parent="WIyWlLk6GJQsqaUBKTNV-1" source="Yh69G0Fh408ok0piyPVB-21" target="Yh69G0Fh408ok0piyPVB-23">
          <mxGeometry relative="1" as="geometry" />
        </mxCell>
        <mxCell id="Yh69G0Fh408ok0piyPVB-21" value="Mostrar mensaje: &quot;Lo sentimos, no podemos realizar esta conversion&quot;" style="shape=parallelogram;perimeter=parallelogramPerimeter;whiteSpace=wrap;html=1;fixedSize=1;rounded=1;" vertex="1" parent="WIyWlLk6GJQsqaUBKTNV-1">
          <mxGeometry x="-10" y="1120" width="280" height="80" as="geometry" />
        </mxCell>
        <mxCell id="Yh69G0Fh408ok0piyPVB-23" value="Fin" style="ellipse;whiteSpace=wrap;html=1;rounded=1;" vertex="1" parent="WIyWlLk6GJQsqaUBKTNV-1">
          <mxGeometry x="70" y="1270" width="120" height="120" as="geometry" />
        </mxCell>
        <mxCell id="Yh69G0Fh408ok0piyPVB-27" value="NO" style="text;strokeColor=none;align=center;fillColor=none;html=1;verticalAlign=middle;whiteSpace=wrap;rounded=0;" vertex="1" parent="WIyWlLk6GJQsqaUBKTNV-1">
          <mxGeometry x="100" y="840" width="60" height="30" as="geometry" />
        </mxCell>
        <mxCell id="Yh69G0Fh408ok0piyPVB-30" value="NO" style="text;strokeColor=none;align=center;fillColor=none;html=1;verticalAlign=middle;whiteSpace=wrap;rounded=0;" vertex="1" parent="WIyWlLk6GJQsqaUBKTNV-1">
          <mxGeometry x="100" y="1060" width="60" height="30" as="geometry" />
        </mxCell>
        <mxCell id="Yh69G0Fh408ok0piyPVB-32" style="edgeStyle=orthogonalEdgeStyle;rounded=0;orthogonalLoop=1;jettySize=auto;html=1;exitX=0.5;exitY=1;exitDx=0;exitDy=0;entryX=0.429;entryY=0.013;entryDx=0;entryDy=0;entryPerimeter=0;" edge="1" parent="WIyWlLk6GJQsqaUBKTNV-1" source="Yh69G0Fh408ok0piyPVB-13" target="Yh69G0Fh408ok0piyPVB-21">
          <mxGeometry relative="1" as="geometry" />
        </mxCell>
        <mxCell id="Yh69G0Fh408ok0piyPVB-34" value="SI" style="text;strokeColor=none;align=center;fillColor=none;html=1;verticalAlign=middle;whiteSpace=wrap;rounded=0;" vertex="1" parent="WIyWlLk6GJQsqaUBKTNV-1">
          <mxGeometry x="240" y="710" width="60" height="30" as="geometry" />
        </mxCell>
        <mxCell id="Yh69G0Fh408ok0piyPVB-38" value="SI" style="text;strokeColor=none;align=center;fillColor=none;html=1;verticalAlign=middle;whiteSpace=wrap;rounded=0;" vertex="1" parent="WIyWlLk6GJQsqaUBKTNV-1">
          <mxGeometry x="240" y="930" width="60" height="30" as="geometry" />
        </mxCell>
        <mxCell id="Yh69G0Fh408ok0piyPVB-39" value="" style="endArrow=none;html=1;rounded=0;entryX=0.583;entryY=1;entryDx=0;entryDy=0;entryPerimeter=0;" edge="1" parent="WIyWlLk6GJQsqaUBKTNV-1" target="Yh69G0Fh408ok0piyPVB-11">
          <mxGeometry width="50" height="50" relative="1" as="geometry">
            <mxPoint x="710" y="900" as="sourcePoint" />
            <mxPoint x="715" y="810" as="targetPoint" />
          </mxGeometry>
        </mxCell>
        <mxCell id="Yh69G0Fh408ok0piyPVB-40" value="" style="endArrow=none;html=1;rounded=0;" edge="1" parent="WIyWlLk6GJQsqaUBKTNV-1">
          <mxGeometry width="50" height="50" relative="1" as="geometry">
            <mxPoint x="710" y="900" as="sourcePoint" />
            <mxPoint x="810" y="900" as="targetPoint" />
          </mxGeometry>
        </mxCell>
        <mxCell id="Yh69G0Fh408ok0piyPVB-41" value="" style="endArrow=none;html=1;rounded=0;" edge="1" parent="WIyWlLk6GJQsqaUBKTNV-1">
          <mxGeometry width="50" height="50" relative="1" as="geometry">
            <mxPoint x="810" y="1320" as="sourcePoint" />
            <mxPoint x="810" y="900" as="targetPoint" />
          </mxGeometry>
        </mxCell>
        <mxCell id="Yh69G0Fh408ok0piyPVB-42" value="" style="endArrow=classic;html=1;rounded=0;" edge="1" parent="WIyWlLk6GJQsqaUBKTNV-1">
          <mxGeometry width="50" height="50" relative="1" as="geometry">
            <mxPoint x="810" y="1320" as="sourcePoint" />
            <mxPoint x="200" y="1320" as="targetPoint" />
          </mxGeometry>
        </mxCell>
        <mxCell id="Yh69G0Fh408ok0piyPVB-43" value="" style="endArrow=none;html=1;rounded=0;" edge="1" parent="WIyWlLk6GJQsqaUBKTNV-1">
          <mxGeometry width="50" height="50" relative="1" as="geometry">
            <mxPoint x="680" y="1320" as="sourcePoint" />
            <mxPoint x="680" y="1015" as="targetPoint" />
          </mxGeometry>
        </mxCell>
      </root>
    </mxGraphModel>
  </diagram>
</mxfile>
